<?xml version="1.0" encoding="utf-8"?>
<svg viewBox="215.3678 246.608 535.6951 519.8372" xmlns="http://www.w3.org/2000/svg">
  <g>
    <path d="M 671.275 766.232 C 512.842 766.483 387.856 766.512 296.314 766.321 C 265.423 766.255 236.408 747.154 223.8 719.332 C 217.098 704.571 215.409 689.909 215.398 672.211 C 215.362 562.917 215.358 453.618 215.387 344.316 C 215.387 334.372 215.734 327.031 216.425 322.291 C 222.342 281.639 251.247 250.649 293.289 246.994 C 295.917 246.759 303.274 246.64 315.359 246.64 C 429.725 246.626 544.091 246.616 658.456 246.608 C 668.475 246.608 675.809 246.986 680.46 247.745 C 725.683 255.142 750.9 293.431 750.955 337.692 C 751.095 451.41 751.099 565.129 750.966 678.847 C 750.921 720.911 726.964 755.976 684.656 764.698 C 679.695 765.714 675.235 766.224 671.275 766.232 Z" style="fill: rgb(244, 199, 247);"/>
    <path d="M 653.697 741.475 C 510.197 741.702 396.991 741.728 314.077 741.555 C 286.097 741.495 259.817 724.195 248.397 698.995 C 242.327 685.625 240.797 672.345 240.787 656.315 C 240.754 557.322 240.751 458.325 240.777 359.325 C 240.777 350.318 241.091 343.668 241.717 339.375 C 247.077 302.555 273.257 274.485 311.337 271.175 C 313.717 270.962 320.381 270.855 331.327 270.855 C 434.914 270.842 538.501 270.832 642.087 270.825 C 651.161 270.825 657.804 271.168 662.017 271.855 C 702.977 278.555 725.817 313.235 725.867 353.325 C 725.994 456.325 725.997 559.325 725.877 662.325 C 725.837 700.425 704.137 732.185 665.817 740.085 C 661.324 741.005 657.284 741.468 653.697 741.475 Z" fill="#05181f"/>
    <g transform="matrix(1, 0, 0, 1, -24.497607, -11.574172)">
      <ellipse transform="matrix(0.492424, 0.870356, -0.870356, 0.492424, 647.890024, 392.66001)" rx="18.65" ry="18.45" style="fill: rgb(244, 198, 247);"/>
      <path d=" M 441.95 443.62 Q 442.19 412.20 442.04 393.50 C 441.87 372.39 469.40 370.33 472.14 390.74 Q 472.25 391.56 472.28 400.28 Q 472.45 453.63 472.48 506.77 A 0.79 0.78 -90.0 0 0 473.26 507.56 Q 496.12 507.47 519.25 507.53 C 535.12 507.58 548.60 517.75 551.96 533.56 Q 552.67 536.88 552.72 553.50 Q 552.83 590.62 552.72 627.75 Q 552.71 632.98 550.34 637.12 C 543.61 648.91 526.78 646.47 523.40 633.69 Q 522.75 631.25 522.76 625.74 Q 522.80 585.62 522.79 545.50 C 522.79 539.93 518.39 538.03 513.24 537.98 Q 493.00 537.79 472.77 537.97 Q 472.24 537.97 472.24 538.51 Q 472.57 582.05 472.34 625.49 Q 472.32 630.79 471.47 633.71 C 469.74 639.66 465.77 643.64 459.44 644.44 C 448.34 645.82 442.11 637.02 442.09 626.50 Q 441.91 550.74 442.15 475.10 A 0.52 0.52 0.0 0 0 441.63 474.58 C 416.26 474.76 390.79 474.24 365.50 474.96 C 360.62 475.10 356.45 477.73 354.54 482.12 Q 353.39 484.75 353.35 491.05 Q 353.30 498.52 353.30 505.99 Q 353.30 513.43 358.74 516.18 Q 361.31 517.48 367.46 517.43 Q 374.89 517.36 385.00 517.53 C 399.85 517.78 412.58 527.11 416.61 541.13 Q 418.03 546.10 417.98 561.00 Q 417.90 581.25 417.98 601.50 C 418.01 610.18 417.70 617.16 412.35 625.09 Q 402.35 639.89 384.51 642.24 Q 380.42 642.78 366.50 642.61 Q 353.76 642.47 341.02 642.68 Q 333.04 642.81 329.65 641.49 C 315.75 636.09 317.44 615.34 333.02 612.85 C 336.78 612.25 341.20 613.04 343.98 613.07 Q 364.99 613.31 373.50 613.00 C 381.74 612.71 387.93 607.23 387.96 598.75 Q 388.04 578.63 387.94 558.51 Q 387.90 550.38 382.47 547.61 Q 379.76 546.23 371.85 546.40 Q 358.40 546.70 351.00 546.20 Q 340.77 545.52 333.32 537.42 Q 323.83 527.08 323.62 511.49 Q 323.45 498.75 323.60 486.00 C 323.69 479.39 323.90 473.45 326.21 467.55 C 331.25 454.66 344.09 446.12 357.25 444.74 Q 359.90 444.46 369.25 444.43 Q 405.33 444.33 441.41 444.17 Q 441.95 444.16 441.95 443.62 Z" style="fill: rgb(255, 255, 255);"/>
      <g>
        <path d=" M 579.33 444.26 Q 580.25 444.26 580.24 443.34 Q 579.94 417.89 580.18 392.75 C 580.27 383.57 587.31 376.42 596.47 376.81 C 603.12 377.09 608.61 382.78 609.65 389.01 Q 610.34 393.12 610.29 399.50 Q 610.09 421.62 610.22 443.95 A 0.42 0.42 0.0 0 0 610.65 444.37 Q 628.02 444.19 645.50 444.33 Q 653.63 444.40 659.48 445.60 C 676.68 449.13 689.42 463.45 690.42 480.75 C 691.70 502.98 691.84 521.35 670.92 533.39 A 0.64 0.63 -46.2 0 0 670.94 534.50 C 680.35 539.40 688.65 548.37 690.97 559.01 Q 691.74 562.52 691.74 569.55 Q 691.75 581.45 691.71 593.35 Q 691.65 609.14 690.99 612.61 C 688.04 628.22 675.30 639.60 659.66 641.88 Q 654.45 642.63 646.75 642.60 Q 630.48 642.54 614.20 642.51 C 608.50 642.50 602.56 644.35 597.04 643.93 Q 584.21 642.95 580.93 631.02 C 579.86 627.10 580.21 622.10 580.19 617.74 Q 579.85 546.49 580.18 475.40 A 0.65 0.65 0.0 0 0 579.53 474.74 Q 553.62 474.67 527.50 474.94 C 513.93 475.08 507.74 458.66 516.58 449.08 Q 521.37 443.88 529.50 444.00 Q 554.69 444.35 579.33 444.26 Z M 657.83 507.05 C 661.29 499.32 662.42 482.85 653.44 477.31 C 648.92 474.53 644.51 474.80 637.75 474.78 Q 624.18 474.75 610.52 474.82 Q 610.10 474.82 610.10 475.24 L 610.28 519.78 Q 610.28 520.26 610.76 520.27 Q 622.01 520.47 633.25 520.22 C 643.14 520.01 653.43 516.86 657.83 507.05 Z M 662.27 573.25 C 662.16 560.57 653.79 551.99 641.25 552.02 Q 625.93 552.05 610.67 552.14 Q 610.14 552.15 610.14 552.68 L 610.28 612.79 Q 610.29 613.45 610.95 613.46 Q 625.14 613.54 639.75 613.63 C 647.14 613.67 656.88 612.28 660.46 605.00 Q 661.95 601.99 662.12 594.29 Q 662.37 583.77 662.27 573.25 Z" style="fill: rgb(255, 255, 255);"/>
      </g>
    </g>
  </g>
</svg>